<?xml version="1.0" encoding="utf-8"?>
<!-- Generator: Adobe Illustrator 27.1.1, SVG Export Plug-In . SVG Version: 6.00 Build 0)  -->
<svg version="1.1" xmlns="http://www.w3.org/2000/svg" xmlns:xlink="http://www.w3.org/1999/xlink" x="0px" y="0px"
	 viewBox="0 0 1300 1300" style="enable-background:new 0 0 1300 1300;" xml:space="preserve">
<style type="text/css">
	.st0{fill:#FFFFFF;}
	.st1{fill:url(#SVGID_1_);}
	.st2{fill:url(#SVGID_00000065032959451942127010000008344596330923722675_);fill-opacity:0.8;}
	.st3{fill:#E24A40;}
	.st4{fill:#5F6062;}
	.st5{fill:#FDB614;}
	.st6{fill:#013047;}
</style>
<g id="Layer_2">
	<rect x="110" y="110" class="st0" width="1080" height="1080"/>
	
		<radialGradient id="SVGID_1_" cx="336.7189" cy="901.8708" r="400" gradientTransform="matrix(1.625 0 0 -1.625 102.8319 2115.54)" gradientUnits="userSpaceOnUse">
		<stop  offset="0" style="stop-color:#FFFFFF"/>
		<stop  offset="1" style="stop-color:#66CBE3"/>
	</radialGradient>
	<rect class="st1" width="1300" height="1300"/>
	<g>
		
			<radialGradient id="SVGID_00000059307767059615066490000014335553461913756822_" cx="336.9259" cy="898.4074" r="560" gradientTransform="matrix(1.35 0 0 -1.35 195.15 1862.85)" gradientUnits="userSpaceOnUse">
			<stop  offset="0" style="stop-color:#FFFFFF"/>
			<stop  offset="1" style="stop-color:#6FCCDD"/>
		</radialGradient>
		<path style="fill:url(#SVGID_00000059307767059615066490000014335553461913756822_);fill-opacity:0.8;" d="M1458.2,702.9
			c2.3-35.8,2.3-71.1,0.1-106l-807,52.9v-0.1l793.3-157.8c-6.9-35-16.1-69.1-27.4-102.3l-766,260v-0.1l725.4-357.8
			c-15.7-31.7-33.5-62.4-53.1-91.7L651.1,649.3c0,0,0-0.1-0.1-0.1l608-533.2c-23.4-26.6-48.3-51.6-74.9-74.9l-533.2,608
			c0,0-0.1,0-0.1-0.1l449.4-672.6c-29.3-19.6-59.9-37.3-91.8-53.1L650.5,648.8h-0.1l260-766c-33.2-11.2-67.4-20.4-102.3-27.3
			L650.3,648.7h-0.1l52.9-806.9c-35.8-2.3-71.1-2.3-106-0.1l52.8,807h-0.1L491.9-144.6c-35,6.9-69.1,16.1-102.3,27.4l260,766h-0.1
			L291.7-76.6C260-60.9,229.3-43.1,200-23.5l449.3,672.4c0,0-0.1,0-0.1,0.1L115.9,41C89.3,64.2,64.4,89.3,41,115.9l608,533.2
			c0,0,0,0.1-0.1,0.1L-23.7,199.9c-19.6,29.3-37.3,59.9-53.1,91.8l725.5,357.8v0.1l-766-260c-11.2,33.2-20.4,67.4-27.3,102.3
			l793.1,157.8v0.1l-806.9-52.9c-2.3,35.8-2.3,71.1-0.1,106l807-52.8v0.1l-793.3,157.8c6.9,35,16.1,69.1,27.4,102.3l766-260v0.1
			l-725.4,357.8c15.7,31.7,33.5,62.4,53.1,91.7l672.4-449.3c0,0,0,0.1,0.1,0.1L41,1184.1c23.4,26.6,48.3,51.6,74.9,74.9l533.2-608
			c0,0,0.1,0,0.1,0.1l-449.4,672.6c29.3,19.6,59.9,37.3,91.8,53.1l357.8-725.5h0.1l-260,766c33.2,11.2,67.4,20.4,102.3,27.3
			l157.8-793.1h0.1l-52.9,806.9c35.8,2.3,71.1,2.3,106,0.1l-52.8-807h0.1l157.8,793.3c35-6.9,69.1-16.1,102.3-27.4l-260-766h0.1
			l357.8,725.4c31.7-15.7,62.4-33.5,91.7-53.1L650.7,651.1c0,0,0.1,0,0.1-0.1l533.2,608c26.6-23.4,51.6-48.3,74.9-74.9l-608-533.2
			c0,0,0-0.1,0.1-0.1l672.6,449.4c19.6-29.3,37.3-59.9,53.1-91.8L651.2,650.5v-0.1l766,260c11.2-33.2,20.4-67.4,27.3-102.3
			L651.3,650.3v-0.1L1458.2,702.9z"/>
	</g>
</g>
<g id="Layer_3">
	<g>
		<path class="st3" d="M464.6,483.3C464.6,483.3,464.6,483.3,464.6,483.3L270.8,677.1c0,0,0,0,0,0c-86.8,86.8-89.1,226.2-6.9,315.8
			c88.2,96.1,239.6,97.5,331.9,5.2l191.8-191.8c44.5-44.5,66.8-102.8,66.9-161.1c0-0.1,0.1-0.2,0.2-0.2l86.6,0.1
			c4.9,0,9.5-1.9,12.9-5.4l145.1-145.1c4.9-4.9,2.8-13.2-3.8-15.2l-233.7-70.2c-0.1,0-0.1-0.1-0.1-0.1L794,173
			c-1.9-6.7-10.3-8.9-15.2-3.9L632.5,315.4c-3.4,3.4-5.3,8-5.4,12.9l-0.3,88c0,0.1-0.1,0.2-0.2,0.2
			C568,416.2,509.3,438.5,464.6,483.3z"/>
		<path class="st4" d="M271.3,1000.7c89.6,89,234.9,86.9,324.2-2.3l95.2-95.2l-323-323l-96.9,96.9c0,0,0,0,0,0
			C181.4,766.5,181.5,911.5,271.3,1000.7z"/>
		<g>
			<circle class="st5" cx="409.7" cy="861.2" r="123.3"/>
			<g>
				<path class="st6" d="M400.2,894c11,2.9,23.2,0.1,31.8-8.5l41.9,41.9c5.1,5.1,5.2,13.5-0.6,18c-22.9,17.9-51.5,24.9-78.9,21.2
					c-7.2-1-11.4-8.3-9.5-15.3L400.2,894z M432,838.9c-4.2-4.2-9.3-7.1-14.7-8.5l15.4-57.2c1.9-7,9.1-11.3,15.8-8.5
					c12.6,5.1,24.5,12.9,34.7,23.1c10.2,10.2,18,22.1,23.1,34.7c2.7,6.7-1.5,14-8.5,15.8l-57.2,15.4
					C439.1,848.3,436.2,843.2,432,838.9z M343.6,797.1l41.9,41.9c-8.6,8.6-11.5,20.8-8.5,31.8L319.8,886c-7,1.9-14.3-2.3-15.3-9.5
					c-3.8-27.4,3.3-56,21.1-78.9C330,791.9,338.5,791.9,343.6,797.1L343.6,797.1z M394.8,876.1c-7.7-7.7-7.7-20.2,0-27.9
					c7.7-7.7,20.2-7.7,27.9,0c7.7,7.7,7.7,20.2,0,27.9C415,883.8,402.5,883.8,394.8,876.1z"/>
			</g>
		</g>
	</g>
</g>
</svg>
