<?xml version="1.0" encoding="utf-8"?>
<!-- Generator: Adobe Illustrator 27.1.1, SVG Export Plug-In . SVG Version: 6.00 Build 0)  -->
<svg version="1.1" id="Layer_3" xmlns="http://www.w3.org/2000/svg" xmlns:xlink="http://www.w3.org/1999/xlink" x="0px" y="0px"
	 viewBox="0 0 2198.4 500" style="enable-background:new 0 0 2198.4 500;" xml:space="preserve">
<style type="text/css">
	.st0{fill:#E24A40;}
	.st1{fill:#5F6062;}
	.st2{fill:#FDB614;}
	.st3{fill:#013047;}
</style>
<g>
	<g>
		<path class="st0" d="M142.7,178.9C142.7,178.9,142.7,178.9,142.7,178.9L36.6,285.5c0,0,0,0,0,0c-48.8,49.1-48.8,128.6,0,177.7
			c48.8,49.1,128,49.1,176.8,0l106.1-106.6c24.4-24.5,36.6-56.6,36.6-88.7l51.6,0l88.2-88.7l-135.9-41L320.6,0l-89,89.4l-0.2,52.6
			C199.4,142,167.2,154.2,142.7,178.9z"/>
		<path class="st1" d="M36.6,463.2c48.8,49.1,128,49.1,176.8,0l53-53.3L89.6,232.2l-53,53.3c0,0,0,0,0,0
			C-12.2,334.6-12.2,414.1,36.6,463.2z"/>
		<g>
			<ellipse class="st2" cx="112.6" cy="386.8" rx="67.5" ry="67.9"/>
			<g>
				<path class="st3" d="M107.5,404.8c6,1.6,12.7,0,17.4-4.7l22.9,23c2.8,2.8,2.8,7.5-0.3,9.9c-12.5,9.8-28.2,13.7-43.2,11.6
					c-3.9-0.5-6.2-4.6-5.2-8.4L107.5,404.8z M124.9,374.5c-2.3-2.3-5.1-3.9-8.1-4.7l8.4-31.5c1-3.9,5-6.2,8.7-4.7
					c6.9,2.8,13.4,7.1,19,12.7c5.6,5.6,9.8,12.2,12.6,19.1c1.5,3.7-0.8,7.7-4.7,8.7l-31.3,8.4C128.7,379.6,127.2,376.8,124.9,374.5z
					 M76.5,351.5l22.9,23c-4.7,4.7-6.3,11.5-4.7,17.5l-31.3,8.4c-3.8,1-7.8-1.3-8.4-5.2c-2.1-15.1,1.8-30.8,11.6-43.4
					C69.1,348.6,73.7,348.7,76.5,351.5L76.5,351.5z M104.5,395c-4.2-4.2-4.2-11.1,0-15.4c4.2-4.2,11.1-4.2,15.3,0
					c4.2,4.2,4.2,11.1,0,15.4C115.5,399.2,108.7,399.2,104.5,395z"/>
			</g>
		</g>
	</g>
	<g>
		<path class="st3" d="M563.3,391.2c-9.6-5.9-16.8-13.5-21.6-22.9c-4.8-9.4-7.1-19.4-7.1-29.9c0-10,2.1-19.7,6.2-28.9
			c4.2-9.3,9.9-16.7,17.2-22.3c7.3-5.6,15.8-8.4,25.3-8.4c1.5,0,2.7,0.4,3.8,1.3c1.1,0.9,1.6,1.9,1.6,3.1c0,8.1,3.5,14.6,10.4,19.6
			c7,5,15.8,7.5,26.6,7.5c16.1,0,31-6.1,44.5-18.3c13.6-12.2,24.4-27,32.4-44.5c8.1-17.5,12.1-33,12.1-46.7c0-9.8-2.1-17.3-6.4-22.5
			c-4.3-5.2-10.3-7.9-18.1-7.9c-7.6,0-14,2.4-19.2,7.1c-5.3,4.8-7.9,11.1-7.9,18.9c0,6.4,1.8,11.7,5.3,16.1c3.5,4.4,8,6.6,13.4,6.6
			c1,2,1.5,4.3,1.5,7c0,5.4-1.8,11-5.5,16.9c-3.7,5.9-9,10.7-15.9,14.5c-7,3.8-14.8,5.7-23.6,5.7c-14.7,0-26.7-5.3-36.1-15.9
			c-9.4-10.6-14.1-24.7-14.1-42.3c0-16.4,4.3-31.6,13-45.8c8.7-14.2,21.3-25.5,37.9-34.1c16.6-8.5,36.3-12.8,59-12.8
			c30,0,52.9,10.9,68.7,32.6c15.8,21.7,23.6,57.3,23.6,106.6c0,5.1,1.6,7.7,4.8,7.7c1.5,0,2.9-0.7,4.2-2.2c1.3-1.5,2.1-3.3,2.4-5.5
			c2.7-24.7,8.4-47.5,17-68.5c8.7-21,20.7-38.1,36.1-51.3c15.4-13.2,33.9-19.8,55.7-19.8c17.1,0,30,3.7,38.6,11.2
			c8.7,7.5,13,16.4,13,26.9c0,11.5-3.2,20.5-9.7,27.1c-6.5,6.6-16.2,9.9-29.1,9.9c-4.4,0-8.2-1.3-11.4-4c-2.7-2.2-5.6-3.3-8.8-3.3
			c-19.3,0-36.3,14.7-50.9,44.1c-14.7,29.4-26.7,69.7-36.3,120.7c-2.7,13.7-7.3,23.8-13.9,30.4c-6.6,6.6-14.4,9.9-23.4,9.9
			c-12.5,0-21.4-5.2-26.7-15.8c-5.4-10.5-8.1-26.1-8.1-46.9c0-26.9,1.5-54.3,4.4-82.4c0.2-2.4-0.1-4.3-0.9-5.7c-0.9-1.3-2.1-2-3.8-2
			c-1.5,0-2.8,0.6-4,1.8c-1.2,1.2-2,2.8-2.2,4.8c-11.2,55.7-29.1,96.5-53.5,122.5c-24.4,26-53,39-85.7,39
			C584.5,400,573,397.1,563.3,391.2z"/>
		<path class="st3" d="M1048.5,281c3.4,0,6.4,1.5,9,4.4c2.6,2.9,3.1,5.6,1.6,8.1l-7,13.6c-6.8,14.2-13.5,26.5-20,37
			c-6.5,10.5-14.8,19.9-24.9,28.2c-10.1,8.3-21.6,12.5-34.2,12.5c-21,0-31.5-13.3-31.5-39.9c0-4.6,0.4-9.6,1.1-15
			c-7.3,15.9-15.8,28.9-25.3,39.2c-9.5,10.3-20.8,15.4-33.7,15.4c-10.3,0-18.2-3.6-23.8-10.8c-5.6-7.2-8.4-18.1-8.4-32.8
			c0-20.3,2.7-39.1,8.1-56.4c8.8-27.6,17.5-48.3,26.2-62.1c8.7-13.8,18-20.7,28-20.7c7.6,0,11.4,4.9,11.4,14.7
			c0,5.4-0.7,10.6-2,15.8c-1.3,5.1-3.5,12.1-6.4,20.9c-2.9,8.3-5,14.8-6.2,19.4c-1.2,4.6-1.8,9.3-1.8,13.9c0,5.6,1.1,9.8,3.3,12.5
			c2.2,2.7,6.2,4,12.1,4c14.7,0,24.9-8.5,30.8-25.6l0.4-1.5c7.8-24.9,15.6-43.5,23.4-55.7c7.8-12.2,16.2-18.3,25.3-18.3
			c7.6,0,11.4,4.9,11.4,14.7c0,4.6-0.7,9.5-2,14.5c-1.3,5-3.5,11.9-6.4,20.7c-2.7,7.6-4.7,13.7-6,18.5c-1.3,4.8-2,9.1-2,13
			c0,6.6,1.8,11.6,5.3,15c3.5,3.4,8,5.1,13.4,5.1c5.1,0,9.6-1.6,13.4-4.8c3.8-3.2,7.7-7.8,11.9-13.9
			C1044.1,282.1,1046.1,281,1048.5,281z"/>
		<path class="st3" d="M1030.6,346.9c0-18.1,4.1-38.9,12.5-62.6l8.1-23.4c12.9-37.6,22.9-65.3,29.9-83c7-17.7,14.1-31.6,21.4-41.6
			c7.3-10,15.4-15,24.2-15c9.8,0,14.7,4.4,14.7,13.2c0,5.6-2,12.7-5.9,21.2c-3.9,8.8-7,15.4-9.2,19.8c-8.1,17.3-14.3,31.7-18.9,43
			c-4.5,11.4-8,23.1-10.4,35.3c-0.5,2.9,0.1,5.3,1.8,7c1.7,1.7,3.9,2.6,6.6,2.6c2.4,0,4.8-0.7,7-2c2.2-1.3,3.8-3.1,4.8-5.3
			c8.1-18.1,16.7-31.7,25.8-40.8c9.2-9.2,20-13.7,32.4-13.7c10.5,0,18.5,2.7,24,8.2s8.2,12.3,8.2,20.3c0,24.9-15.1,37.4-45.4,37.4
			c-5.9,0.2-10.3,1.9-13.2,4.9c-2.9,3.1-4.4,6.9-4.4,11.5c0,6.1,2.9,10.8,8.8,14.1c5.9,3.3,13.9,4.9,24.2,4.9
			c24.4,0,40.7-6.2,48.7-18.7c2-3.4,4.5-5.1,7.7-5.1c2.4,0,4.6,1.2,6.6,3.5c2,2.3,2.9,4.8,2.9,7.5c0,1.5-0.2,2.6-0.7,3.3
			c-1.2,2-2.3,4-3.3,6c-1,2.1-2,4-2.9,5.7c-10.7,22.2-22.6,41-35.5,56.4c-12.9,15.4-28.9,23.1-48,23.1c-12.2,0-21.4-5.5-27.5-16.5
			c-6.1-11-11-29.5-14.7-55.7c-0.5-4.1-1.8-7.3-3.8-9.5c-2.1-2.2-4.5-3.3-7.1-3.3c-3.2,0-5.9,1.6-8.2,4.9c-2.3,3.3-3.5,7.8-3.5,13.4
			v27.8c0,25.9-9.6,38.8-28.9,38.8C1040.1,384.6,1030.6,372,1030.6,346.9z"/>
		<path class="st3" d="M1239.3,364.3c-10.7-13.6-16.1-30.6-16.1-51.1c0-17.6,3.9-35,11.7-52.4c7.8-17.3,19-31.6,33.7-42.7
			c14.7-11.1,31.5-16.7,50.6-16.7c16.1,0,28.3,4.4,36.6,13.2c8.3,8.8,12.5,19.8,12.5,33c0,9-2.5,17.9-7.5,26.7
			c-5,8.8-12,16-20.9,21.6c-8.9,5.6-19.1,8.4-30.6,8.4c-12.2,0-21.7-2-28.6-5.9c-1-0.5-1.7-0.7-2.2-0.7c-1.2,0-2.2,0.4-2.9,1.3
			c-0.7,0.9-1.1,2.1-1.1,3.8c0,6.1,3.6,10.9,10.8,14.3c7.2,3.4,16.3,5.1,27.3,5.1c13.2,0,26.4-3.3,39.6-9.9
			c13.2-6.6,23.7-16,31.5-28.2c1.5-2.2,3.4-3.3,5.9-3.3c3.4,0,6.4,1.5,9,4.4c2.6,2.9,3.1,5.6,1.6,8.1c-16.1,30-33.8,52.7-52.9,68.1
			c-19.2,15.4-39.4,23.1-60.6,23.1C1265.8,384.6,1250.1,377.8,1239.3,364.3z M1316.1,270.5c4.3-4.3,6.4-9,6.4-14.1
			c0-4.4-1.5-8-4.4-10.8c-2.9-2.8-7.1-4.2-12.5-4.2c-6.8,0-12.4,2.1-16.7,6.2c-4.3,4.2-6.4,8.9-6.4,14.3c0,4.4,1.5,8,4.4,10.8
			c2.9,2.8,7.2,4.2,12.8,4.2C1306.4,276.9,1311.8,274.8,1316.1,270.5z"/>
		<path class="st3" d="M1387.9,391.2c-10.6-5.9-18.4-13.4-23.4-22.7c-5-9.3-7.5-19.3-7.5-30c0-10,2.1-19.7,6.2-28.9
			c4.2-9.3,9.9-16.7,17.2-22.3c7.3-5.6,15.8-8.4,25.3-8.4c1.5,0,2.7,0.4,3.8,1.3c1.1,0.9,1.6,1.9,1.6,3.1c0,8.1,3.2,14.6,9.5,19.6
			c6.3,5,14.8,7.5,25.3,7.5c12.7,0,25.8-5.2,39.4-15.8c13.6-10.5,24.4-26.1,32.4-46.9l4-10.3c1.7-4.6,4.1-11.2,7.3-19.6
			c3.2-8.4,5.9-15.4,8.1-21.1c4.4-11.7,12.3-17.6,23.8-17.6c12.2,0,18.3,4.2,18.3,12.5c0,1.5-0.5,3.9-1.5,7.3
			c-14.4,45.2-26.7,79.9-37,104c-13.7,32.7-30,57.1-49.1,73.1c-19,16-40.3,24-63.7,24C1411.9,400,1398.5,397.1,1387.9,391.2z
			 M1405.3,244.5c-8.1-9.9-12.1-21.9-12.1-36.1c0-18.1,5.7-35.3,17.2-51.8c11.5-16.5,28.8-29.9,51.8-40.1
			c23.1-10.3,51.2-15.4,84.4-15.4c18.8,0,36.1,0.6,52,1.8c3.9,0.2,8.5,0.5,13.9,0.7c5.4,0.2,11.7,0.4,19,0.4c12.9,0,25-1,36.3-2.9
			c2-0.2,4-0.5,6-0.7c2.1-0.2,4.1-0.4,6-0.4c5.4,0,9.1,1.2,11.2,3.7c2.1,2.4,3.1,6.2,3.1,11.4c0,9.8-2.3,18.7-7,26.9
			c-4.6,8.2-11.5,14.8-20.5,19.8c-9,5-19.9,7.5-32.6,7.5c-7.3,0-13.8-0.7-19.4-2c-5.6-1.3-12.3-3.5-20.1-6.4
			c-9.3-3.4-17.6-6-25.1-7.9c-7.5-1.8-16.5-2.7-27.3-2.7c-13.9,0-26.1,2-36.6,6c-10.5,4-18.6,9.5-24.2,16.3
			c-5.6,6.8-8.4,14.2-8.4,22c0,4.9,1.3,9,4,12.3c2.7,3.3,6,4.9,9.9,4.9c1,2.9,1.5,5.3,1.5,7c0,5.9-2.1,12-6.2,18.3
			c-4.2,6.4-10,11.7-17.4,15.9c-7.5,4.3-16.1,6.4-25.8,6.4C1424.6,259.3,1413.3,254.4,1405.3,244.5z"/>
		<path class="st3" d="M1755.5,281.7c3.4,0,6.5,1.2,9.2,3.7c2.7,2.4,3.3,5.1,1.8,8.1c-6.8,14.4-15.3,26.4-25.3,35.9
			c-10,9.5-23,14.3-38.8,14.3h-4.4c-9.3,12.7-20.2,22.7-32.8,30c-12.6,7.3-25.6,11-39,11c-16.9,0-30.5-5.6-41-16.7
			c-10.5-11.1-15.7-26.1-15.7-44.9c0-18.6,4.5-37.3,13.4-56.2c8.9-18.9,21.1-34.6,36.4-46.9c15.4-12.3,32.4-18.5,50.9-18.5
			c16.1,0,29.1,5.1,38.8,15.2c9.8,10.1,14.7,26.1,14.7,47.8c0,12.9-1.8,25.5-5.5,37.7h2.6c11.2,0,21-6,29.3-17.9
			C1750.9,282.5,1752.8,281.7,1755.5,281.7z M1663,303.5c4.8-3.5,8.5-8,11.2-13.4c2.7-5.4,4-10.6,4-15.8c0-5.6-1.6-10.3-4.9-13.9
			c-3.3-3.7-8.4-5.5-15.2-5.5c-8.6,0-15.7,3.5-21.4,10.6c-5.7,7.1-8.6,14.9-8.6,23.4c0,5.9,1.5,10.6,4.6,14.3
			c3.1,3.7,7.9,5.5,14.5,5.5C1652.9,308.8,1658.2,307,1663,303.5z"/>
		<path class="st3" d="M2003.1,281.7c3.4,0,6.5,1.2,9.2,3.7c2.7,2.4,3.3,5.1,1.8,8.1c-6.8,14.4-15.3,26.4-25.3,35.9
			c-10,9.5-23,14.3-38.8,14.3c-3.9,0-7.7-0.7-11.4-2.2c-21,28.6-41,42.9-60.1,42.9c-7.8,0-14.3-3.6-19.4-10.8
			c-5.1-7.2-7.7-19.5-7.7-36.8c0-2.7,0.2-8.2,0.7-16.5c-9,22.7-19.4,39.1-31,49.1c-11.6,10-23.3,15-35,15c-13.7,0-24-6-31-18.1
			c-7-12.1-10.4-27.3-10.4-45.6c0-12.5,1.5-24.5,4.4-36.3c5.1-21.5,12.3-40.7,21.4-57.5c9.2-16.8,18.4-25.3,27.7-25.3
			c7.6,0,11.4,4.9,11.4,14.7c0,4.6-0.7,9.4-2,14.3c-1.3,4.9-3.4,11.5-6,19.8c-2.9,9.3-5.1,16.4-6.4,21.2c-1.3,4.9-2,9.8-2,14.7
			c0,7.1,1.7,12.6,5.1,16.7c3.4,4,8.3,6,14.7,6c8.3,0,15-2.9,20-8.8c5-5.9,8.6-13.3,10.8-22.3c1-4.4,1.6-8.8,1.8-13.4
			c0.2-4.5,0.4-7.4,0.4-8.6c0-10.5,1.1-19.5,3.3-27.1c3.2-10.5,7.3-17.6,12.3-21.4c5-3.8,11.9-5.7,20.7-5.7
			c15.4,0,23.1,8.3,23.1,24.9c0,3.9-0.9,8.2-2.6,12.8c-1.7,4.6-4.2,10.1-7.3,16.5c-3.4,7.8-5.9,13.9-7.5,18.1
			c-1.6,4.3-2.4,8.4-2.4,12.3c0,7.1,1.7,12.6,5.1,16.7c3.4,4,8.3,6,14.7,6c11.7,0,21.5-5.1,29.3-15.4c-2.4-12.2-3.7-23.2-3.7-33
			c0-17.3,3.1-31.6,9.3-42.9c6.2-11.2,15.3-16.8,27.3-16.8c12.9,0,19.4,8.2,19.4,24.5c0,9-2.1,20.1-6.4,33.3
			c-4.3,13.2-10.4,27.6-18.5,43.2c1.5,0.2,3.5,0.4,6.2,0.4c11.2,0,21-6,29.3-17.9C1998.5,282.5,2000.4,281.7,2003.1,281.7z"/>
		<path class="st3" d="M1992.6,377.1c-4.8-5-7.1-11.4-7.1-19.2c0-20.3,4-44.8,12.1-73.6c6.3-23,13.7-42.5,22-58.6
			c8.3-16.1,15.6-24.2,22-24.2c8.1,0,12.1,4.6,12.1,13.9c0,9,2.4,13.6,7.3,13.6c3.4,0,7.3-2.2,11.7-6.6
			c14.4-13.9,29.2-20.9,44.3-20.9c10.7,0,18.9,3.2,24.5,9.5c5.6,6.4,8.4,14.4,8.4,24.2c0,4.4-0.5,8.4-1.5,11.9
			c-1,3.5-2.4,8.1-4.4,13.7c-2,4.9-3.4,9-4.4,12.5c-1,3.4-1.5,7.2-1.5,11.4c0,6.4,1.4,11,4.2,13.9c2.8,2.9,7.3,4.4,13.4,4.4
			c5.1,0,9.6-1.5,13.4-4.6c3.8-3.1,7.8-7.7,11.9-14.1c1.5-2.2,3.4-3.3,5.9-3.3c3.4,0,6.4,1.5,9,4.4c2.6,2.9,3.1,5.6,1.6,8.1l-7,13.6
			c-6.8,14.2-13.5,26.5-20,37c-6.5,10.5-14.8,19.9-24.9,28.2c-10.1,8.3-21.6,12.5-34.3,12.5c-10.7,0-18.6-3.5-23.6-10.6
			c-5-7.1-7.5-16.2-7.5-27.5c0-7.1,0.9-14,2.6-20.7c1.7-6.7,4-14.3,7-22.9c0.5-1.5,1.6-4.9,3.3-10.4c1.7-5.5,2.6-9.9,2.6-13.4
			c0-4.1-1.2-7.3-3.7-9.5c-2.4-2.2-5.9-3.3-10.3-3.3c-6.8,0-13.3,3-19.4,9c-6.1,6-11,13.8-14.7,23.4c-3.7,9.6-5.5,19.8-5.5,30.6
			v16.5c0,25.9-10,38.8-30,38.8C2003.9,384.6,1997.4,382.1,1992.6,377.1z"/>
	</g>
</g>
</svg>
