<?xml version="1.0" encoding="utf-8"?>
<!-- Generator: Adobe Illustrator 27.7.0, SVG Export Plug-In . SVG Version: 6.00 Build 0)  -->
<svg version="1.1" id="Layer_3" xmlns="http://www.w3.org/2000/svg" xmlns:xlink="http://www.w3.org/1999/xlink" x="0px" y="0px"
	 viewBox="0 0 1000 1000" style="enable-background:new 0 0 1000 1000;" xml:space="preserve">
<style type="text/css">
	.st0{fill:#E24A40;}
	.st1{fill:#5F6062;}
	.st2{fill:#FDB614;}
	.st3{fill:#013047;}
</style>
<g>
	<path class="st0" d="M393.2,339.5C393.2,339.5,393.2,339.5,393.2,339.5L287.1,445.6c0,0,0,0,0,0c-48.8,48.8-48.8,128,0,176.8
		c48.8,48.8,128,48.8,176.8,0L570,516.3c24.4-24.4,36.6-56.3,36.6-88.3l51.6,0l88.2-88.2L610.5,299l-39.4-137.4l-89,89l-0.2,52.4
		C449.9,302.8,417.7,315,393.2,339.5z"/>
	<path class="st1" d="M287.1,622.4c48.8,48.8,128,48.8,176.8,0l53-53L340.2,392.5l-53,53c0,0,0,0,0,0
		C238.3,494.4,238.3,573.5,287.1,622.4z"/>
	<g>
		<circle class="st2" cx="363.1" cy="546.3" r="67.5"/>
		<g>
			<path class="st3" d="M358,564.2c6,1.6,12.7,0,17.4-4.7l22.9,22.9c2.8,2.8,2.8,7.4-0.3,9.8c-12.5,9.8-28.2,13.6-43.2,11.6
				c-3.9-0.5-6.2-4.5-5.2-8.4L358,564.2z M375.4,534.1c-2.3-2.3-5.1-3.9-8.1-4.7l8.4-31.3c1-3.8,5-6.2,8.7-4.7
				c6.9,2.8,13.4,7,19,12.6s9.8,12.1,12.6,19c1.5,3.7-0.8,7.6-4.7,8.7l-31.3,8.4C379.2,539.2,377.7,536.5,375.4,534.1z M327,511.2
				l22.9,22.9c-4.7,4.7-6.3,11.4-4.7,17.4l-31.3,8.4c-3.8,1-7.8-1.3-8.4-5.2c-2.1-15,1.8-30.6,11.6-43.2
				C319.6,508.4,324.2,508.4,327,511.2L327,511.2z M355,554.5c-4.2-4.2-4.2-11.1,0-15.3s11.1-4.2,15.3,0c4.2,4.2,4.2,11.1,0,15.3
				C366.1,558.7,359.2,558.7,355,554.5z"/>
		</g>
	</g>
</g>
<g>
	<path class="st3" d="M113.8,834.2c-4.6-2.8-8.1-6.5-10.4-11c-2.3-4.5-3.4-9.3-3.4-14.4c0-4.8,1-9.4,3-13.9c2-4.5,4.8-8,8.3-10.7
		c3.5-2.7,7.6-4.1,12.2-4.1c0.7,0,1.3,0.2,1.8,0.6c0.5,0.4,0.8,0.9,0.8,1.5c0,3.9,1.7,7,5,9.4c3.3,2.4,7.6,3.6,12.8,3.6
		c7.7,0,14.9-2.9,21.4-8.8c6.5-5.9,11.7-13,15.6-21.4c3.9-8.4,5.8-15.9,5.8-22.5c0-4.7-1-8.3-3.1-10.8c-2.1-2.5-5-3.8-8.7-3.8
		c-3.6,0-6.7,1.1-9.2,3.4c-2.5,2.3-3.8,5.3-3.8,9.1c0,3.1,0.9,5.6,2.6,7.7c1.7,2.1,3.8,3.2,6.4,3.2c0.5,0.9,0.7,2.1,0.7,3.3
		c0,2.6-0.9,5.3-2.6,8.1c-1.8,2.8-4.3,5.1-7.7,7c-3.3,1.8-7.1,2.7-11.4,2.7c-7,0-12.8-2.6-17.3-7.7c-4.5-5.1-6.8-11.9-6.8-20.3
		c0-7.9,2.1-15.2,6.3-22c4.2-6.8,10.2-12.3,18.2-16.4c8-4.1,17.4-6.2,28.4-6.2c14.4,0,25.5,5.2,33,15.7
		c7.6,10.5,11.4,27.5,11.4,51.3c0,2.5,0.8,3.7,2.3,3.7c0.7,0,1.4-0.4,2-1.1c0.6-0.7,1-1.6,1.1-2.6c1.3-11.9,4-22.8,8.2-32.9
		c4.2-10.1,10-18.3,17.3-24.7c7.4-6.3,16.3-9.5,26.8-9.5c8.2,0,14.4,1.8,18.6,5.4c4.2,3.6,6.3,7.9,6.3,12.9c0,5.5-1.6,9.9-4.7,13
		c-3.1,3.2-7.8,4.8-14,4.8c-2.1,0-3.9-0.6-5.5-1.9c-1.3-1.1-2.7-1.6-4.2-1.6c-9.3,0-17.4,7.1-24.5,21.2c-7,14.2-12.9,33.5-17.4,58
		c-1.3,6.6-3.5,11.4-6.7,14.6c-3.2,3.2-6.9,4.8-11.3,4.8c-6,0-10.3-2.5-12.9-7.6c-2.6-5-3.9-12.6-3.9-22.5c0-12.9,0.7-26.1,2.1-39.6
		c0.1-1.2,0-2.1-0.4-2.7c-0.4-0.6-1-1-1.8-1c-0.7,0-1.4,0.3-1.9,0.9c-0.6,0.6-0.9,1.4-1.1,2.3c-5.4,26.8-14,46.4-25.7,58.9
		c-11.7,12.5-25.5,18.8-41.2,18.8C124,838.4,118.5,837,113.8,834.2z"/>
	<path class="st3" d="M347.1,781.2c1.6,0,3.1,0.7,4.3,2.1c1.2,1.4,1.5,2.7,0.8,3.9l-3.3,6.5c-3.3,6.8-6.5,12.7-9.6,17.8
		c-3.1,5-7.1,9.6-12,13.6c-4.9,4-10.4,6-16.5,6c-10.1,0-15.1-6.4-15.1-19.2c0-2.2,0.2-4.6,0.5-7.2c-3.5,7.6-7.6,13.9-12.2,18.8
		s-10,7.4-16.2,7.4c-4.9,0-8.7-1.7-11.4-5.2c-2.7-3.5-4.1-8.7-4.1-15.8c0-9.7,1.3-18.8,3.9-27.1c4.2-13.3,8.4-23.2,12.6-29.9
		c4.2-6.6,8.7-10,13.5-10c3.6,0,5.5,2.4,5.5,7c0,2.6-0.3,5.1-1,7.6c-0.6,2.5-1.7,5.8-3.1,10c-1.4,4-2.4,7.1-3,9.3
		c-0.6,2.2-0.9,4.5-0.9,6.7c0,2.7,0.5,4.7,1.6,6c1.1,1.3,3,1.9,5.8,1.9c7,0,12-4.1,14.8-12.3l0.2-0.7c3.8-12,7.5-20.9,11.3-26.8
		c3.8-5.9,7.8-8.8,12.2-8.8c3.6,0,5.5,2.4,5.5,7c0,2.2-0.3,4.6-1,7c-0.6,2.4-1.7,5.7-3.1,10c-1.3,3.6-2.3,6.6-2.9,8.9
		c-0.6,2.3-1,4.4-1,6.3c0,3.2,0.9,5.6,2.6,7.2c1.7,1.6,3.8,2.5,6.4,2.5c2.5,0,4.6-0.8,6.4-2.3c1.8-1.5,3.7-3.8,5.7-6.7
		C345,781.7,345.9,781.2,347.1,781.2z"/>
	<path class="st3" d="M338.5,812.9c0-8.7,2-18.7,6-30.1l3.9-11.3c6.2-18.1,11-31.4,14.4-39.9c3.3-8.5,6.8-15.2,10.3-20
		c3.5-4.8,7.4-7.2,11.6-7.2c4.7,0,7,2.1,7,6.3c0,2.7-0.9,6.1-2.8,10.2c-1.9,4.2-3.3,7.4-4.4,9.5c-3.9,8.3-6.9,15.2-9.1,20.7
		c-2.2,5.5-3.8,11.1-5,17c-0.2,1.4,0.1,2.5,0.9,3.3c0.8,0.8,1.9,1.2,3.2,1.2c1.2,0,2.3-0.3,3.3-1c1.1-0.6,1.8-1.5,2.3-2.6
		c3.9-8.7,8-15.2,12.4-19.6c4.4-4.4,9.6-6.6,15.6-6.6c5,0,8.9,1.3,11.5,4c2.6,2.6,4,5.9,4,9.8c0,12-7.3,18-21.8,18
		c-2.8,0.1-4.9,0.9-6.3,2.4c-1.4,1.5-2.1,3.3-2.1,5.5c0,2.9,1.4,5.2,4.2,6.8c2.8,1.6,6.7,2.4,11.6,2.4c11.7,0,19.6-3,23.4-9
		c0.9-1.6,2.2-2.5,3.7-2.5c1.2,0,2.2,0.6,3.2,1.7c0.9,1.1,1.4,2.3,1.4,3.6c0,0.7-0.1,1.2-0.4,1.6c-0.6,0.9-1.1,1.9-1.6,2.9
		c-0.5,1-0.9,1.9-1.4,2.7c-5.2,10.7-10.9,19.7-17.1,27.1c-6.2,7.4-13.9,11.1-23.1,11.1c-5.9,0-10.3-2.6-13.2-7.9
		c-2.9-5.3-5.3-14.2-7-26.8c-0.2-2-0.9-3.5-1.8-4.6c-1-1.1-2.1-1.6-3.4-1.6c-1.5,0-2.8,0.8-4,2.4c-1.1,1.6-1.7,3.7-1.7,6.4v13.4
		c0,12.4-4.6,18.7-13.9,18.7C343.1,831,338.5,825,338.5,812.9z"/>
	<path class="st3" d="M438.9,821.3c-5.2-6.5-7.7-14.7-7.7-24.6c0-8.5,1.9-16.8,5.6-25.2c3.8-8.3,9.2-15.2,16.2-20.5
		c7-5.3,15.1-8,24.3-8c7.8,0,13.6,2.1,17.6,6.3c4,4.2,6,9.5,6,15.9c0,4.3-1.2,8.6-3.6,12.9c-2.4,4.2-5.8,7.7-10,10.4
		c-4.3,2.7-9.2,4.1-14.7,4.1c-5.9,0-10.5-0.9-13.7-2.8c-0.5-0.2-0.8-0.4-1.1-0.4c-0.6,0-1.1,0.2-1.4,0.6c-0.4,0.4-0.5,1-0.5,1.8
		c0,2.9,1.7,5.2,5.2,6.9c3.5,1.6,7.8,2.5,13.1,2.5c6.3,0,12.7-1.6,19-4.8c6.3-3.2,11.4-7.7,15.1-13.6c0.7-1.1,1.6-1.6,2.8-1.6
		c1.6,0,3.1,0.7,4.3,2.1c1.2,1.4,1.5,2.7,0.8,3.9c-7.8,14.4-16.2,25.4-25.4,32.8c-9.2,7.4-18.9,11.1-29.1,11.1
		C451.6,831,444,827.8,438.9,821.3z M475.8,776.2c2.1-2.1,3.1-4.3,3.1-6.8c0-2.1-0.7-3.8-2.1-5.2c-1.4-1.3-3.4-2-6-2c-3.3,0-6,1-8,3
		c-2.1,2-3.1,4.3-3.1,6.9c0,2.1,0.7,3.8,2.1,5.2c1.4,1.4,3.5,2,6.2,2C471.1,779.3,473.7,778.2,475.8,776.2z"/>
	<path class="st3" d="M510.3,834.2c-5.1-2.8-8.9-6.5-11.3-10.9c-2.4-4.5-3.6-9.3-3.6-14.4c0-4.8,1-9.4,3-13.9c2-4.5,4.8-8,8.3-10.7
		c3.5-2.7,7.6-4.1,12.2-4.1c0.7,0,1.3,0.2,1.8,0.6c0.5,0.4,0.8,0.9,0.8,1.5c0,3.9,1.5,7,4.6,9.4c3.1,2.4,7.1,3.6,12.2,3.6
		c6.1,0,12.4-2.5,18.9-7.6c6.5-5,11.7-12.6,15.6-22.5l1.9-4.9c0.8-2.2,2-5.4,3.5-9.4c1.5-4.1,2.8-7.4,3.9-10.1
		c2.1-5.6,5.9-8.5,11.4-8.5c5.9,0,8.8,2,8.8,6c0,0.7-0.2,1.9-0.7,3.5c-6.9,21.7-12.9,38.4-17.8,50c-6.6,15.7-14.4,27.4-23.6,35.1
		c-9.2,7.7-19.4,11.5-30.6,11.5C521.8,838.4,515.4,837,510.3,834.2z M518.7,763.7c-3.9-4.8-5.8-10.5-5.8-17.3c0-8.7,2.8-17,8.3-24.9
		c5.5-7.9,13.8-14.4,24.9-19.3s24.6-7.4,40.6-7.4c9,0,17.4,0.3,25,0.9c1.9,0.1,4.1,0.2,6.7,0.4c2.6,0.1,5.6,0.2,9.2,0.2
		c6.2,0,12-0.5,17.4-1.4c0.9-0.1,1.9-0.2,2.9-0.4c1-0.1,2-0.2,2.9-0.2c2.6,0,4.4,0.6,5.4,1.8c1,1.2,1.5,3,1.5,5.5
		c0,4.7-1.1,9-3.3,12.9c-2.2,3.9-5.5,7.1-9.9,9.5c-4.3,2.4-9.6,3.6-15.7,3.6c-3.5,0-6.6-0.3-9.3-1c-2.7-0.6-5.9-1.7-9.7-3.1
		c-4.5-1.6-8.5-2.9-12.1-3.8c-3.6-0.9-8-1.3-13.1-1.3c-6.7,0-12.6,1-17.6,2.9c-5,1.9-8.9,4.6-11.6,7.8c-2.7,3.3-4.1,6.8-4.1,10.6
		c0,2.3,0.6,4.3,1.9,5.9c1.3,1.6,2.9,2.4,4.8,2.4c0.5,1.4,0.7,2.5,0.7,3.3c0,2.8-1,5.8-3,8.8c-2,3.1-4.8,5.6-8.4,7.7
		c-3.6,2.1-7.7,3.1-12.4,3.1C527.9,770.8,522.5,768.4,518.7,763.7z"/>
	<path class="st3" d="M687,781.6c1.6,0,3.1,0.6,4.4,1.8c1.3,1.2,1.6,2.5,0.9,3.9c-3.3,6.9-7.3,12.7-12.2,17.3
		c-4.8,4.6-11,6.9-18.7,6.9h-2.1c-4.5,6.1-9.7,10.9-15.8,14.4c-6,3.5-12.3,5.3-18.8,5.3c-8.1,0-14.7-2.7-19.7-8
		c-5-5.3-7.6-12.5-7.6-21.6c0-8.9,2.1-17.9,6.4-27c4.3-9.1,10.1-16.6,17.5-22.5c7.4-5.9,15.6-8.9,24.5-8.9c7.7,0,14,2.4,18.7,7.3
		c4.7,4.9,7,12.5,7,23c0,6.2-0.9,12.3-2.6,18.1h1.2c5.4,0,10.1-2.9,14.1-8.6C684.9,782,685.7,781.6,687,781.6z M642.6,792
		c2.3-1.7,4.1-3.8,5.4-6.4c1.3-2.6,1.9-5.1,1.9-7.6c0-2.7-0.8-4.9-2.4-6.7c-1.6-1.8-4-2.6-7.3-2.6c-4.1,0-7.5,1.7-10.3,5.1
		c-2.8,3.4-4.1,7.2-4.1,11.3c0,2.8,0.7,5.1,2.2,6.9c1.5,1.8,3.8,2.6,7,2.6C637.7,794.6,640.3,793.7,642.6,792z"/>
	<path class="st3" d="M806.1,781.6c1.6,0,3.1,0.6,4.4,1.8c1.3,1.2,1.6,2.5,0.9,3.9c-3.3,6.9-7.3,12.7-12.2,17.3
		c-4.8,4.6-11,6.9-18.7,6.9c-1.9,0-3.7-0.4-5.5-1.1c-10.1,13.7-19.7,20.6-28.9,20.6c-3.8,0-6.9-1.7-9.3-5.2
		c-2.5-3.5-3.7-9.4-3.7-17.7c0-1.3,0.1-3.9,0.4-7.9c-4.3,10.9-9.3,18.8-14.9,23.6c-5.6,4.8-11.2,7.2-16.8,7.2
		c-6.6,0-11.5-2.9-14.9-8.7c-3.3-5.8-5-13.1-5-21.9c0-6,0.7-11.8,2.1-17.4c2.5-10.3,5.9-19.6,10.3-27.7c4.4-8.1,8.8-12.2,13.3-12.2
		c3.6,0,5.5,2.4,5.5,7c0,2.2-0.3,4.5-1,6.9c-0.6,2.4-1.6,5.5-2.9,9.5c-1.4,4.5-2.4,7.9-3.1,10.2c-0.6,2.3-1,4.7-1,7
		c0,3.4,0.8,6.1,2.5,8c1.6,1.9,4,2.9,7,2.9c4,0,7.2-1.4,9.6-4.2c2.4-2.8,4.1-6.4,5.2-10.7c0.5-2.1,0.8-4.3,0.9-6.4
		c0.1-2.2,0.2-3.6,0.2-4.1c0-5,0.5-9.4,1.6-13c1.5-5,3.5-8.5,5.9-10.3c2.4-1.8,5.7-2.7,10-2.7c7.4,0,11.1,4,11.1,12
		c0,1.9-0.4,3.9-1.2,6.2c-0.8,2.2-2,4.9-3.5,7.9c-1.6,3.8-2.8,6.7-3.6,8.7c-0.8,2.1-1.1,4-1.1,5.9c0,3.4,0.8,6.1,2.5,8
		c1.6,1.9,4,2.9,7,2.9c5.6,0,10.3-2.5,14.1-7.4c-1.2-5.9-1.8-11.2-1.8-15.9c0-8.3,1.5-15.2,4.5-20.6c3-5.4,7.4-8.1,13.1-8.1
		c6.2,0,9.3,3.9,9.3,11.8c0,4.3-1,9.7-3.1,16c-2.1,6.3-5,13.3-8.9,20.8c0.7,0.1,1.7,0.2,3,0.2c5.4,0,10.1-2.9,14.1-8.6
		C803.9,782,804.8,781.6,806.1,781.6z"/>
	<path class="st3" d="M801.1,827.4c-2.3-2.4-3.4-5.5-3.4-9.2c0-9.7,1.9-21.5,5.8-35.4c3.1-11,6.6-20.4,10.6-28.2
		c4-7.8,7.5-11.6,10.6-11.6c3.9,0,5.8,2.2,5.8,6.7c0,4.3,1.2,6.5,3.5,6.5c1.6,0,3.5-1.1,5.6-3.2c6.9-6.7,14-10,21.3-10
		c5.2,0,9.1,1.5,11.8,4.6c2.7,3.1,4.1,6.9,4.1,11.6c0,2.1-0.2,4-0.7,5.7c-0.5,1.7-1.2,3.9-2.1,6.6c-0.9,2.4-1.6,4.3-2.1,6
		c-0.5,1.6-0.7,3.5-0.7,5.5c0,3.1,0.7,5.3,2,6.7c1.3,1.4,3.5,2.1,6.4,2.1c2.5,0,4.6-0.7,6.4-2.2c1.8-1.5,3.7-3.7,5.7-6.8
		c0.7-1.1,1.6-1.6,2.8-1.6c1.6,0,3.1,0.7,4.3,2.1c1.2,1.4,1.5,2.7,0.8,3.9l-3.3,6.5c-3.3,6.8-6.5,12.7-9.6,17.8
		c-3.1,5-7.1,9.6-12,13.6c-4.9,4-10.4,6-16.5,6c-5.2,0-9-1.7-11.4-5.1c-2.4-3.4-3.6-7.8-3.6-13.2c0-3.4,0.4-6.7,1.2-10
		c0.8-3.2,1.9-6.9,3.3-11c0.2-0.7,0.8-2.4,1.6-5c0.8-2.6,1.2-4.8,1.2-6.4c0-2-0.6-3.5-1.8-4.6c-1.2-1.1-2.8-1.6-4.9-1.6
		c-3.3,0-6.4,1.4-9.3,4.3c-2.9,2.9-5.3,6.6-7,11.3c-1.8,4.6-2.6,9.5-2.6,14.7v7.9c0,12.4-4.8,18.7-14.4,18.7
		C806.5,831,803.4,829.8,801.1,827.4z"/>
</g>
</svg>
